<svg width="24" height="24" viewBox="0 0 24 24" fill="none" xmlns="http://www.w3.org/2000/svg">
<g clip-path="url(#clip0_718_749)">
<path d="M20.4376 4.95996C18.8525 4.23424 17.1791 3.71939 15.4601 3.42856C15.2249 3.84905 15.012 4.28169 14.8225 4.72465C12.9915 4.44874 11.1295 4.44874 9.29845 4.72465C9.10879 4.28173 8.89596 3.84911 8.66084 3.42856C6.94079 3.72184 5.26626 4.23792 3.67952 4.96375C0.529425 9.62437 -0.324516 14.1692 0.102455 18.6496C1.94723 20.0126 4.01205 21.0492 6.20718 21.7143C6.70146 21.0495 7.13883 20.3442 7.51466 19.606C6.80083 19.3394 6.11185 19.0105 5.45571 18.623C5.6284 18.4978 5.79729 18.3687 5.96049 18.2435C7.8697 19.1413 9.95352 19.6069 12.0633 19.6069C14.1731 19.6069 16.2569 19.1413 18.1661 18.2435C18.3312 18.3782 18.5001 18.5073 18.6709 18.623C18.0135 19.0111 17.3233 19.3406 16.6082 19.6079C16.9835 20.3458 17.4209 21.0505 17.9157 21.7143C20.1127 21.0518 22.1791 20.0157 24.0242 18.6515C24.5252 13.4557 23.1683 8.95261 20.4376 4.95996ZM8.05549 15.8942C6.86566 15.8942 5.88268 14.8144 5.88268 13.4861C5.88268 12.1577 6.83151 11.0685 8.05169 11.0685C9.27188 11.0685 10.2473 12.1577 10.2264 13.4861C10.2055 14.8144 9.26808 15.8942 8.05549 15.8942ZM16.0711 15.8942C14.8794 15.8942 13.9002 14.8144 13.9002 13.4861C13.9002 12.1577 14.8491 11.0685 16.0711 11.0685C17.2932 11.0685 18.261 12.1577 18.2402 13.4861C18.2193 14.8144 17.2837 15.8942 16.0711 15.8942Z" fill="#5865F2"/>
</g>
<defs>
<clipPath id="clip0_718_749">
<rect width="24" height="24" fill="white"/>
</clipPath>
</defs>
</svg>
