<svg width="504" height="480" viewBox="0 0 504 480" fill="none" xmlns="http://www.w3.org/2000/svg">
<g clip-path="url(#clip0_561_930)">
<g clip-path="url(#clip1_561_930)">
<path d="M468.724 73.2149C468.777 73.2149 468.83 73.2139 468.883 73.2118C469.506 73.1892 470.113 73.0167 470.654 72.7089C471.196 72.401 471.654 71.967 471.992 71.4438C474.52 67.6659 477.622 64.3058 481.186 61.4848C483.343 59.7603 485.598 58.1567 487.778 56.6058C493.403 52.6063 498.701 48.8393 501.641 43.6345C508.052 32.2849 500.502 16.4766 489.716 9.38713C477.618 1.43589 461.705 0.18868 446.311 0.0252348C444.711 0.00831486 443.11 -8.54032e-05 441.508 6.54514e-07C413.771 0.0106202 386.092 2.54146 358.813 7.56133C349.742 9.23486 340.248 11.285 332.617 16.2603C325.033 21.2062 320.423 28.9948 320.872 36.1033C321.529 46.4805 332.529 54.2345 342.546 56.2617C352.094 58.1924 362.013 56.8876 372.513 55.5059C374.832 55.2011 377.228 54.8857 379.599 54.6116C405.359 51.6341 453.75 60.8115 455.798 61.2037L457.829 61.5925L465.71 71.7342C466.064 72.1965 466.521 72.5707 467.044 72.8275C467.567 73.0844 468.142 73.2169 468.724 73.2149Z" fill="#3F51B5"/>
<path d="M369.855 24.5846V26.8565C371.267 26.9597 372.764 27.0458 374.554 27.0458C376.206 27.0458 378.323 26.9425 379.528 26.8393V24.5501C378.22 24.6878 376.241 24.7911 374.554 24.7911C372.73 24.7911 371.129 24.7222 369.855 24.5846ZM371.301 31.865L369.046 31.6585C368.926 32.3125 368.702 33.1559 368.702 34.137C368.702 36.5122 370.699 37.8202 374.623 37.8202C377.033 37.8202 379.098 37.5965 380.613 37.2523L380.595 34.8254C379.064 35.2557 376.861 35.5139 374.554 35.5139C372.076 35.5139 371.009 34.7049 371.009 33.6206C371.009 33.0354 371.146 32.4847 371.301 31.865ZM393.263 24.3092L390.819 23.3281C390.509 24.051 390.182 24.619 389.976 25.0665C389.046 26.7188 385.518 33.7411 384.261 37.1834L386.688 38.0096C386.946 37.0973 387.532 35.1697 387.996 34.1714C388.599 32.7772 389.58 31.5724 390.75 31.5724C391.37 31.5724 391.697 31.9339 391.748 32.5363C391.8 33.242 391.8 34.6361 391.852 35.5655C391.938 36.8048 392.816 37.9579 394.726 37.9579C397.377 37.9579 398.96 35.9958 399.872 33.0354L397.996 31.5208C397.514 33.655 396.585 35.5999 395.088 35.5999C394.52 35.5999 394.055 35.3246 393.986 34.6533C393.9 33.9304 393.934 32.5535 393.9 31.7962C393.831 30.3504 393.057 29.5415 391.766 29.5415C391.112 29.5415 390.44 29.6964 389.804 30.075C390.647 28.5432 391.852 26.3401 392.712 25.1181C392.902 24.8255 393.074 24.5329 393.263 24.3092ZM408.237 25.0493L408.254 27.2523C410.406 27.4589 413.538 27.4589 415.638 27.2523V25.0321C413.796 25.2558 410.354 25.3419 408.237 25.0493ZM409.614 32.3986L407.652 32.2265C407.445 33.1043 407.342 33.7755 407.342 34.464C407.342 36.2196 408.771 37.2867 411.731 37.2867C413.676 37.2867 415.07 37.1662 416.189 36.9424L416.137 34.6189C414.64 34.9459 413.366 35.0836 411.834 35.0836C410.079 35.0836 409.408 34.6189 409.408 33.8444C409.408 33.3969 409.476 32.9838 409.614 32.3986ZM405.587 23.8961L403.177 23.7068C403.16 24.2575 403.074 24.9116 403.005 25.3763C402.816 26.7188 402.299 29.6103 402.299 32.2093C402.299 34.55 402.626 36.6498 402.97 37.8202L404.95 37.6998C404.933 37.4588 404.933 37.1662 404.915 36.9769C404.915 36.8048 404.967 36.4261 405.019 36.1679C405.191 35.2557 405.759 33.3969 406.258 31.9511L405.191 31.1077C404.933 31.6929 404.657 32.2781 404.399 32.8633C404.347 32.5191 404.33 32.0888 404.33 31.7446C404.33 30.0234 404.933 26.5811 405.173 25.4451C405.242 25.1353 405.466 24.2575 405.587 23.8961ZM425.535 23.3625L423.091 23.2593C423.125 23.8272 423.108 24.2747 423.022 24.9976C422.798 26.7704 421.834 30.9528 420.561 33.4657L422.592 34.1714C422.746 33.8788 422.884 33.6722 423.074 33.4313C424.089 32.1232 425.845 31.4003 427.824 31.4003C429.511 31.4003 430.406 32.2781 430.406 33.2936C430.406 35.8409 426.602 36.2884 422.815 35.686L423.418 37.9063C428.994 38.5087 432.729 37.0973 432.729 33.242C432.729 31.0217 430.87 29.5587 428.099 29.5587C426.55 29.5587 425.208 29.8685 423.814 30.6258C424.33 29.0251 424.846 26.495 425.122 25.1181C425.259 24.5673 425.363 23.9821 425.535 23.3625ZM419.528 25.3763L419.545 27.5105C420.561 27.6138 421.8 27.6826 423.108 27.6826C425.604 27.6826 429.252 27.2696 431.438 26.9081L431.387 24.8427C428.564 25.4451 425.294 25.7033 423.091 25.7033C422.024 25.7033 420.647 25.5656 419.528 25.3763ZM441.679 26.5122L441.696 28.5776C442.712 28.6465 443.693 28.6809 444.708 28.6809C446.774 28.6637 448.942 28.526 450.75 28.2506V26.1164C448.96 26.495 446.808 26.6671 444.708 26.6671C443.659 26.6671 442.677 26.6155 441.679 26.5122ZM448.237 23.6207H445.776C445.827 23.9477 445.879 24.4813 445.879 24.7567C445.896 25.273 445.913 26.4262 445.913 27.7343C445.913 30.2127 446.137 33.1043 446.137 34.2919C446.137 35.3073 445.776 35.8581 444.726 35.8581C443.796 35.8581 443.108 35.5483 443.108 34.8426C443.108 34.1886 443.779 33.7927 444.76 33.7927C446.705 33.7927 448.443 34.9459 450.423 36.7875L451.593 34.9803C450.251 33.7411 448.168 32.1232 444.932 32.1232C442.574 32.1232 441.094 33.328 441.094 35.0836C441.094 36.8908 442.574 37.8719 444.967 37.8719C447.445 37.8719 448.34 36.5638 448.34 34.7566C448.34 33.1215 448.065 30.884 448.065 27.7171C448.065 26.4778 448.099 25.2902 448.134 24.7222C448.151 24.3608 448.185 23.9477 448.237 23.6207ZM439.838 23.7928L437.445 23.6035C437.428 24.1371 437.359 24.8083 437.29 25.2902C437.084 26.6155 436.567 29.8685 436.567 32.4674C436.567 34.791 436.912 36.7703 437.256 37.9579L439.201 37.8202C439.184 37.5793 439.184 37.2867 439.184 37.0973C439.166 36.9252 439.218 36.5466 439.27 36.3056C439.459 35.359 440.027 33.6206 440.509 32.1921L439.442 31.3487C439.201 31.9339 438.908 32.5191 438.667 33.1215C438.616 32.7772 438.598 32.3297 438.598 32.0027C438.598 30.2816 439.166 26.495 439.424 25.3419C439.493 25.0321 439.7 24.1371 439.838 23.7928ZM456.023 24.5626L455.821 33.4007H453.853L453.657 24.5626H456.023ZM454.837 37.2146C454.466 37.2146 454.148 37.0842 453.884 36.8234C453.623 36.5626 453.492 36.2448 453.492 35.8699C453.492 35.5032 453.623 35.1895 453.884 34.9287C454.148 34.6679 454.466 34.5375 454.837 34.5375C455.2 34.5375 455.513 34.6679 455.778 34.9287C456.047 35.1895 456.182 35.5032 456.182 35.8699C456.182 36.1185 456.118 36.3447 455.992 36.5484C455.87 36.7521 455.707 36.9151 455.503 37.0374C455.304 37.1555 455.081 37.2146 454.837 37.2146Z" fill="#F2F2F2"/>
</g>
<g clip-path="url(#clip2_561_930)">
<path d="M233.17 480C341.447 480 429.222 475.506 429.222 469.962C429.222 464.418 341.447 459.924 233.17 459.924C124.894 459.924 37.1182 464.418 37.1182 469.962C37.1182 475.506 124.894 480 233.17 480Z" fill="#F2F2F2"/>
<path d="M347.712 160.87H345.485V99.779C345.485 90.4015 341.765 81.408 335.142 74.7772C328.52 68.1463 319.538 64.4211 310.172 64.4211H180.908C171.543 64.421 162.561 68.1462 155.938 74.7771C149.316 81.4079 145.595 90.4013 145.595 99.7788V434.929C145.595 444.307 149.316 453.3 155.938 459.931C162.561 466.562 171.542 470.287 180.908 470.287H310.172C319.538 470.287 328.52 466.562 335.142 459.931C341.765 453.3 345.485 444.307 345.485 434.93V204.356H347.712L347.712 160.87Z" fill="#3F3D56"/>
<path d="M337.969 100.026V434.683C337.969 441.686 335.19 448.403 330.245 453.355C325.299 458.307 318.591 461.089 311.597 461.089H181.712C174.718 461.089 168.01 458.307 163.064 453.355C158.118 448.403 155.34 441.686 155.34 434.683V100.026C155.34 93.0224 158.118 86.306 163.064 81.3539C168.01 76.4018 174.718 73.6197 181.712 73.6196H197.469C196.694 75.5246 196.4 77.5909 196.61 79.6368C196.821 81.6827 197.53 83.6454 198.676 85.3524C199.822 87.0593 201.369 88.4582 203.181 89.4259C204.994 90.3936 207.016 90.9005 209.07 90.902H283.124C285.179 90.9005 287.201 90.3936 289.013 89.4259C290.826 88.4582 292.373 87.0593 293.519 85.3524C294.665 83.6454 295.374 81.6827 295.585 79.6368C295.795 77.5909 295.5 75.5246 294.726 73.6196H311.597C318.591 73.6197 325.299 76.4018 330.245 81.3539C335.19 86.306 337.969 93.0224 337.969 100.026Z" fill="white"/>
<path d="M186.352 219.868C186.005 219.867 185.662 219.795 185.345 219.654C185.028 219.513 184.744 219.308 184.51 219.051L156.872 188.862C156.559 188.52 156.178 188.247 155.753 188.06C155.329 187.873 154.871 187.777 154.407 187.776H8.35966C6.1433 187.774 4.01844 186.891 2.45123 185.322C0.884032 183.753 0.0024884 181.625 0 179.406V126.67C0.00248693 124.451 0.884032 122.324 2.45123 120.754C4.01844 119.185 6.1433 118.302 8.35966 118.3H197.575C199.791 118.302 201.916 119.185 203.483 120.754C205.051 122.324 205.932 124.451 205.935 126.67V179.406C205.932 181.625 205.051 183.753 203.483 185.322C201.916 186.891 199.791 187.774 197.575 187.776H192.211C191.324 187.777 190.474 188.13 189.847 188.758C189.22 189.386 188.867 190.237 188.866 191.125V217.354C188.869 217.861 188.717 218.356 188.431 218.774C188.146 219.192 187.74 219.513 187.268 219.694C186.976 219.809 186.665 219.867 186.352 219.868Z" fill="white"/>
<path d="M186.352 219.868C186.005 219.867 185.662 219.795 185.345 219.654C185.028 219.513 184.744 219.308 184.51 219.051L156.872 188.862C156.559 188.52 156.178 188.247 155.753 188.06C155.329 187.873 154.871 187.777 154.407 187.776H8.35966C6.1433 187.774 4.01844 186.891 2.45123 185.322C0.884032 183.753 0.0024884 181.625 0 179.406V126.67C0.00248693 124.451 0.884032 122.324 2.45123 120.754C4.01844 119.185 6.1433 118.302 8.35966 118.3H197.575C199.791 118.302 201.916 119.185 203.483 120.754C205.051 122.324 205.932 124.451 205.935 126.67V179.406C205.932 181.625 205.051 183.753 203.483 185.322C201.916 186.891 199.791 187.774 197.575 187.776H192.211C191.324 187.777 190.474 188.13 189.847 188.758C189.22 189.386 188.867 190.237 188.866 191.125V217.354C188.869 217.861 188.717 218.356 188.431 218.774C188.146 219.192 187.74 219.513 187.268 219.694C186.976 219.809 186.665 219.867 186.352 219.868ZM8.35966 119.415C6.43864 119.418 4.59691 120.183 3.23855 121.543C1.88018 122.903 1.1161 124.747 1.11393 126.67V179.406C1.1161 181.329 1.88019 183.173 3.23856 184.533C4.59692 185.894 6.43864 186.659 8.35966 186.661H154.407C155.025 186.662 155.636 186.791 156.202 187.04C156.767 187.289 157.275 187.653 157.693 188.108L185.331 218.297C185.521 218.505 185.769 218.65 186.042 218.713C186.316 218.777 186.602 218.757 186.864 218.655C187.126 218.553 187.35 218.374 187.509 218.142C187.668 217.91 187.752 217.636 187.752 217.354V191.125C187.754 189.941 188.224 188.807 189.06 187.97C189.895 187.133 191.029 186.662 192.211 186.661H197.575C199.496 186.659 201.338 185.894 202.696 184.533C204.055 183.173 204.819 181.329 204.821 179.406V126.67C204.819 124.747 204.055 122.903 202.696 121.543C201.338 120.183 199.496 119.418 197.575 119.415H8.35966Z" fill="#3F3D56"/>
<path d="M20.5053 141.563C24.5453 141.563 27.8203 138.284 27.8203 134.239C27.8203 130.194 24.5453 126.914 20.5053 126.914C16.4653 126.914 13.1902 130.194 13.1902 134.239C13.1902 138.284 16.4653 141.563 20.5053 141.563Z" fill="#3F51B5"/>
<path d="M309.153 398.709C308.681 398.528 308.275 398.207 307.99 397.789C307.704 397.371 307.553 396.876 307.555 396.369V370.14C307.554 369.252 307.201 368.401 306.574 367.773C305.947 367.145 305.097 366.792 304.21 366.791H298.846C296.63 366.789 294.505 365.906 292.938 364.337C291.37 362.767 290.489 360.64 290.486 358.421V305.685C290.489 303.466 291.37 301.338 292.938 299.769C294.505 298.2 296.63 297.317 298.846 297.315H488.061C490.278 297.317 492.403 298.2 493.97 299.769C495.537 301.338 496.419 303.466 496.421 305.685V358.421C496.419 360.64 495.537 362.767 493.97 364.337C492.403 365.906 490.278 366.789 488.061 366.791H342.014C341.55 366.792 341.092 366.888 340.668 367.075C340.243 367.262 339.862 367.535 339.549 367.877L311.911 398.066C311.678 398.323 311.393 398.528 311.076 398.669C310.759 398.809 310.416 398.882 310.069 398.883C309.756 398.882 309.445 398.823 309.153 398.709Z" fill="white"/>
<path d="M309.153 398.709C308.681 398.528 308.275 398.207 307.99 397.789C307.704 397.371 307.553 396.876 307.555 396.369V370.14C307.554 369.252 307.201 368.401 306.574 367.773C305.947 367.145 305.097 366.792 304.21 366.791H298.846C296.63 366.789 294.505 365.906 292.938 364.337C291.37 362.767 290.489 360.64 290.486 358.421V305.685C290.489 303.466 291.37 301.338 292.938 299.769C294.505 298.2 296.63 297.317 298.846 297.315H488.061C490.278 297.317 492.403 298.2 493.97 299.769C495.537 301.338 496.419 303.466 496.421 305.685V358.421C496.419 360.64 495.537 362.767 493.97 364.337C492.403 365.906 490.278 366.789 488.061 366.791H342.014C341.55 366.792 341.092 366.888 340.668 367.075C340.243 367.262 339.862 367.535 339.549 367.877L311.911 398.066C311.678 398.323 311.393 398.528 311.076 398.669C310.759 398.809 310.416 398.882 310.069 398.883C309.756 398.882 309.445 398.823 309.153 398.709ZM298.846 298.43C296.925 298.432 295.083 299.197 293.725 300.558C292.366 301.918 291.602 303.762 291.6 305.685V358.421C291.602 360.344 292.366 362.188 293.725 363.548C295.083 364.908 296.925 365.673 298.846 365.676H304.21C305.392 365.677 306.526 366.148 307.361 366.985C308.197 367.822 308.667 368.956 308.669 370.14V396.369C308.669 396.65 308.753 396.925 308.912 397.157C309.071 397.389 309.295 397.568 309.557 397.67C309.819 397.772 310.105 397.792 310.379 397.728C310.652 397.664 310.9 397.519 311.09 397.312L338.728 367.123C339.146 366.668 339.654 366.304 340.219 366.054C340.785 365.805 341.396 365.676 342.014 365.676H488.061C489.982 365.673 491.824 364.908 493.183 363.548C494.541 362.188 495.305 360.344 495.307 358.421V305.685C495.305 303.762 494.541 301.918 493.183 300.558C491.824 299.197 489.982 298.432 488.061 298.43H298.846Z" fill="#3F3D56"/>
<g clip-path="url(#clip3_561_930)">
<path d="M222.691 382.981C230.775 382.981 237.327 376.382 237.327 368.242C237.327 360.102 230.775 353.504 222.691 353.504C214.608 353.504 208.055 360.102 208.055 368.242C208.055 376.382 214.608 382.981 222.691 382.981Z" fill="#FFB8B8"/>
<path d="M216.637 432.245C214.711 432.012 212.806 431.699 210.93 431.295L212.71 390.965L212.965 390.697L216.609 386.822H228.198L232.475 390.993L232.837 391.352L241.985 400.177L246.116 429.036C241.836 430.547 237.41 431.6 232.911 432.177C230.119 432.539 227.306 432.719 224.491 432.718C223.073 432.718 221.661 432.672 220.265 432.581C219.044 432.501 217.835 432.393 216.637 432.245Z" fill="#CBCBCB"/>
<path d="M196.392 426.356C195.166 425.776 193.964 425.156 192.787 424.496C192.668 413.571 192.589 406.316 192.589 406.316L193.968 405.468C193.984 405.46 194.001 405.452 194.019 405.446L209.665 395.875L212.948 390.504L212.965 390.697L213.931 402.02C216.841 412.023 218.959 422.242 220.265 432.581C219.044 432.501 217.836 432.393 216.638 432.245C214.711 432.012 212.806 431.699 210.931 431.295C210.868 431.284 210.801 431.267 210.739 431.255C206.841 430.425 203.029 429.231 199.353 427.688C198.353 427.267 197.364 426.828 196.392 426.356Z" fill="#2F2E41"/>
<path d="M246.116 429.036C241.836 430.547 237.41 431.6 232.911 432.177C232.287 428.504 232.058 424.775 232.227 421.053C233.448 401.406 230.634 390.504 231.854 390.504L232.476 390.993L240.155 397.104L250.263 400.837H250.269L257.225 403.403L258.451 403.858V404.444C258.456 406.47 258.468 413.56 258.569 423.107C257.179 423.961 255.757 424.763 254.303 425.514C253.422 425.969 252.535 426.402 251.631 426.811C251.405 426.914 251.173 427.022 250.941 427.119C249.365 427.824 247.754 428.467 246.116 429.036Z" fill="#2F2E41"/>
<path d="M208.844 372.854C208.844 372.854 210.088 370.654 209.799 363.308C209.51 355.961 220.619 360.116 229.902 359.416C239.185 358.715 237.22 371.681 237.22 371.681C237.22 371.681 237.89 370.91 239.324 364.652C240.758 358.394 237.502 352.158 237.502 352.158C236.543 345.582 231.376 347.69 231.376 347.69C233.864 348.666 233.386 350.751 233.386 350.751C231.28 347.032 226.112 349.14 226.112 349.14C219.221 344.785 212.236 350.52 212.236 350.52C203.91 352.423 208.793 359.09 208.793 359.09C200.42 363.351 208.844 372.854 208.844 372.854Z" fill="#2F2E41"/>
<path d="M185.684 419.909C185.899 414.908 185.995 411.682 185.882 411.232C185.3 408.888 193.245 405.747 193.968 405.468C193.984 405.46 194.001 405.452 194.019 405.446L195.635 406.316L196.392 426.356C195.166 425.776 193.964 425.156 192.787 424.496C190.323 423.123 187.951 421.591 185.684 419.909Z" fill="#2F2E41"/>
<path d="M258.569 423.107C257.179 423.961 255.757 424.763 254.303 425.514C253.422 425.969 252.535 426.402 251.631 426.811C251.404 426.914 251.173 427.022 250.941 427.119L248.398 401.838L249.884 400.746C249.884 400.746 250.02 400.78 250.263 400.837H250.269C251.461 401.133 255.122 402.111 257.225 403.403C257.694 403.671 258.109 404.024 258.451 404.444C258.658 404.695 258.762 405.017 258.739 405.343C258.671 406.003 259.801 412.262 261.474 421.212C260.524 421.872 259.556 422.504 258.569 423.107Z" fill="#2F2E41"/>
<path d="M223.426 424.14C211.369 424.136 199.717 419.749 190.609 411.784C181.5 403.819 175.545 392.81 173.836 380.776C172.127 368.742 174.778 356.49 181.303 346.268C187.829 336.045 197.791 328.538 209.362 325.122C220.934 321.707 233.338 322.612 244.301 327.673C255.264 332.733 264.049 341.609 269.046 352.673C274.043 363.736 274.916 376.246 271.506 387.906C268.095 399.566 260.629 409.596 250.478 416.155C242.405 421.374 233.015 424.146 223.426 424.14ZM223.426 324.179C213.73 324.178 204.253 327.076 196.191 332.506C188.129 337.937 181.846 345.655 178.135 354.687C174.425 363.718 173.454 373.656 175.345 383.243C177.236 392.831 181.905 401.638 188.76 408.55C195.616 415.462 204.35 420.17 213.859 422.076C223.368 423.983 233.224 423.004 242.181 419.263C251.138 415.521 258.794 409.186 264.179 401.058C269.565 392.929 272.439 383.373 272.439 373.598C272.424 360.496 267.255 347.934 258.067 338.67C248.878 329.405 236.42 324.194 223.426 324.179Z" fill="#3F3D56"/>
</g>
<path d="M314.026 320.02C318.066 320.02 321.341 316.741 321.341 312.696C321.341 308.651 318.066 305.372 314.026 305.372C309.986 305.372 306.711 308.651 306.711 312.696C306.711 316.741 309.986 320.02 314.026 320.02Z" fill="#3F51B5"/>
<path d="M308.918 403.702C316.455 403.702 322.565 403.023 322.565 402.185C322.565 401.348 316.455 400.668 308.918 400.668C301.38 400.668 295.27 401.348 295.27 402.185C295.27 403.023 301.38 403.702 308.918 403.702Z" fill="#F2F2F2"/>
<path d="M186.942 225.245C194.48 225.245 200.59 224.566 200.59 223.728C200.59 222.89 194.48 222.211 186.942 222.211C179.405 222.211 173.294 222.89 173.294 223.728C173.294 224.566 179.405 225.245 186.942 225.245Z" fill="#F2F2F2"/>
<path d="M13.3349 158.934V156.981H23.5963V158.934H19.6211V169.842H17.3101V158.934H13.3349ZM27.7473 164.19V169.842H25.474V156.981H27.6971V161.835H27.8101C28.0362 161.291 28.3858 160.862 28.8589 160.548C29.3361 160.23 29.9432 160.071 30.68 160.071C31.3499 160.071 31.9339 160.211 32.4321 160.491C32.9303 160.772 33.3155 161.182 33.5876 161.722C33.8639 162.262 34.0021 162.922 34.0021 163.7V169.842H31.7288V164.052C31.7288 163.403 31.5613 162.899 31.2264 162.539C30.8956 162.174 30.4309 161.992 29.8322 161.992C29.4303 161.992 29.0703 162.08 28.7521 162.256C28.4381 162.428 28.1911 162.677 28.0111 163.003C27.8352 163.33 27.7473 163.725 27.7473 164.19ZM40.5897 170.03C39.6226 170.03 38.7874 169.83 38.084 169.428C37.3849 169.022 36.8469 168.448 36.4701 167.707C36.0933 166.962 35.9049 166.085 35.9049 165.076C35.9049 164.083 36.0933 163.213 36.4701 162.463C36.8511 161.71 37.3828 161.124 38.0652 160.705C38.7476 160.282 39.5494 160.071 40.4704 160.071C41.0649 160.071 41.6259 160.167 42.1534 160.359C42.6851 160.548 43.154 160.841 43.5601 161.239C43.9704 161.636 44.2928 162.143 44.5272 162.758C44.7617 163.37 44.8789 164.098 44.8789 164.944V165.641H36.9725V164.109H42.6998C42.6956 163.673 42.6014 163.286 42.4172 162.947C42.233 162.603 41.9755 162.333 41.6447 162.137C41.3182 161.94 40.9372 161.842 40.5018 161.842C40.0371 161.842 39.6289 161.955 39.2772 162.181C38.9255 162.403 38.6513 162.696 38.4546 163.06C38.262 163.42 38.1636 163.815 38.1594 164.247V165.584C38.1594 166.145 38.262 166.627 38.4671 167.029C38.6723 167.426 38.959 167.732 39.3275 167.946C39.6959 168.155 40.1271 168.26 40.6211 168.26C40.9519 168.26 41.2512 168.214 41.5192 168.121C41.7871 168.025 42.0194 167.885 42.2162 167.701C42.413 167.516 42.5616 167.288 42.6621 167.016L44.7847 167.255C44.6507 167.816 44.3953 168.306 44.0186 168.724C43.6459 169.139 43.1687 169.461 42.5867 169.691C42.0048 169.917 41.3391 170.03 40.5897 170.03ZM47.9388 173.459C47.629 173.459 47.3422 173.434 47.0784 173.384C46.8189 173.338 46.6116 173.283 46.4567 173.221L46.9842 171.45C47.315 171.546 47.6101 171.592 47.8697 171.588C48.1293 171.584 48.3574 171.502 48.5542 171.343C48.7552 171.188 48.9247 170.929 49.0629 170.564L49.2576 170.043L45.7597 160.196H48.1711L50.3942 167.481H50.4947L52.7241 160.196H55.1418L51.2797 171.01C51.0997 171.521 50.861 171.958 50.5638 172.323C50.2665 172.691 49.9023 172.972 49.4711 173.164C49.044 173.361 48.5333 173.459 47.9388 173.459ZM68.7253 162.746L66.6529 162.972C66.5943 162.763 66.4917 162.566 66.3452 162.382C66.2028 162.197 66.0103 162.049 65.7674 161.936C65.5246 161.823 65.2274 161.766 64.8757 161.766C64.4026 161.766 64.0049 161.869 63.6825 162.074C63.3643 162.279 63.2073 162.545 63.2115 162.871C63.2073 163.152 63.3099 163.38 63.5192 163.556C63.7327 163.732 64.0844 163.876 64.5742 163.989L66.2196 164.341C67.1323 164.538 67.8105 164.85 68.2543 165.277C68.7022 165.704 68.9283 166.263 68.9325 166.953C68.9283 167.56 68.7504 168.096 68.3987 168.561C68.0512 169.022 67.5677 169.382 66.9481 169.641C66.3284 169.901 65.6167 170.03 64.8129 170.03C63.6323 170.03 62.6819 169.783 61.9618 169.289C61.2417 168.791 60.8126 168.098 60.6744 167.211L62.8912 166.997C62.9917 167.433 63.2052 167.761 63.5318 167.983C63.8583 168.205 64.2833 168.316 64.8066 168.316C65.3467 168.316 65.78 168.205 66.1065 167.983C66.4373 167.761 66.6027 167.487 66.6027 167.161C66.6027 166.884 66.4959 166.656 66.2824 166.476C66.0731 166.296 65.7465 166.158 65.3027 166.062L63.6574 165.716C62.7321 165.524 62.0476 165.199 61.6039 164.743C61.1601 164.282 60.9403 163.7 60.9445 162.997C60.9403 162.403 61.1015 161.888 61.428 161.452C61.7588 161.013 62.2172 160.673 62.8033 160.435C63.3936 160.192 64.0739 160.071 64.8443 160.071C65.9747 160.071 66.8643 160.311 67.5132 160.793C68.1664 161.274 68.5704 161.925 68.7253 162.746ZM73.5828 170.037C72.9715 170.037 72.421 169.928 71.9312 169.71C71.4455 169.488 71.0603 169.162 70.7757 168.731C70.4952 168.299 70.3549 167.768 70.3549 167.135C70.3549 166.591 70.4554 166.141 70.6563 165.785C70.8573 165.429 71.1315 165.145 71.479 164.931C71.8265 164.718 72.2179 164.557 72.6533 164.448C73.0929 164.335 73.5472 164.253 74.0161 164.203C74.5813 164.144 75.0397 164.092 75.3914 164.046C75.7431 163.996 75.9984 163.92 76.1575 163.82C76.3208 163.715 76.4024 163.554 76.4024 163.336V163.298C76.4024 162.825 76.2622 162.459 75.9817 162.199C75.7012 161.94 75.2972 161.81 74.7697 161.81C74.2129 161.81 73.7712 161.932 73.4446 162.174C73.1222 162.417 72.9045 162.704 72.7915 163.035L70.6689 162.733C70.8364 162.147 71.1127 161.657 71.4978 161.264C71.883 160.866 72.354 160.569 72.9108 160.372C73.4676 160.171 74.0831 160.071 74.7571 160.071C75.2218 160.071 75.6844 160.125 76.145 160.234C76.6055 160.343 77.0263 160.523 77.4072 160.774C77.7882 161.021 78.0938 161.358 78.3241 161.785C78.5585 162.212 78.6758 162.746 78.6758 163.386V169.842H76.4904V168.517H76.415C76.2769 168.785 76.0822 169.036 75.831 169.271C75.584 169.501 75.2721 169.687 74.8953 169.83C74.5227 169.968 74.0852 170.037 73.5828 170.037ZM74.1731 168.366C74.6294 168.366 75.0251 168.276 75.36 168.096C75.6949 167.912 75.9524 167.669 76.1324 167.368C76.3166 167.066 76.4087 166.738 76.4087 166.382V165.245C76.3376 165.304 76.2161 165.358 76.0445 165.408C75.877 165.459 75.6886 165.503 75.4793 165.54C75.27 165.578 75.0627 165.612 74.8576 165.641C74.6524 165.67 74.4745 165.695 74.3238 165.716C73.9847 165.762 73.6812 165.838 73.4132 165.942C73.1453 166.047 72.9338 166.193 72.7789 166.382C72.624 166.566 72.5466 166.805 72.5466 167.098C72.5466 167.516 72.6994 167.833 73.005 168.046C73.3106 168.26 73.7 168.366 74.1731 168.366ZM80.9617 169.842V160.196H83.235V169.842H80.9617ZM82.1046 158.827C81.7446 158.827 81.4347 158.708 81.1752 158.469C80.9156 158.226 80.7858 157.935 80.7858 157.596C80.7858 157.253 80.9156 156.962 81.1752 156.723C81.4347 156.481 81.7446 156.359 82.1046 156.359C82.4688 156.359 82.7786 156.481 83.034 156.723C83.2936 156.962 83.4234 157.253 83.4234 157.596C83.4234 157.935 83.2936 158.226 83.034 158.469C82.7786 158.708 82.4688 158.827 82.1046 158.827ZM89.1522 170.012C88.3944 170.012 87.7162 169.817 87.1175 169.428C86.5189 169.038 86.0458 168.473 85.6983 167.732C85.3508 166.991 85.177 166.091 85.177 165.032C85.177 163.96 85.3529 163.056 85.7046 162.319C86.0604 161.578 86.5398 161.019 87.1427 160.642C87.7455 160.261 88.4175 160.071 89.1585 160.071C89.7237 160.071 90.1884 160.167 90.5526 160.359C90.9169 160.548 91.2058 160.776 91.4193 161.044C91.6328 161.308 91.7982 161.557 91.9154 161.791H92.0096V156.981H94.2892V169.842H92.0535V168.322H91.9154C91.7982 168.557 91.6286 168.806 91.4067 169.07C91.1848 169.329 90.8918 169.551 90.5275 169.735C90.1633 169.92 89.7049 170.012 89.1522 170.012ZM89.7865 168.147C90.268 168.147 90.6782 168.017 91.0174 167.757C91.3565 167.493 91.6139 167.127 91.7898 166.658C91.9656 166.189 92.0535 165.643 92.0535 165.019C92.0535 164.395 91.9656 163.853 91.7898 163.393C91.6181 162.932 91.3628 162.574 91.0236 162.319C90.6887 162.063 90.2763 161.936 89.7865 161.936C89.2799 161.936 88.8571 162.068 88.518 162.331C88.1788 162.595 87.9235 162.959 87.7518 163.424C87.5802 163.889 87.4943 164.42 87.4943 165.019C87.4943 165.622 87.5802 166.16 87.7518 166.633C87.9276 167.102 88.1851 167.472 88.5242 167.745C88.8675 168.013 89.2883 168.147 89.7865 168.147ZM100.866 161V159.719C100.866 159.35 100.935 158.967 101.073 158.57C101.215 158.168 101.408 157.789 101.651 157.433C101.898 157.073 102.174 156.769 102.48 156.522L103.535 157.207C103.288 157.58 103.081 157.969 102.913 158.375C102.75 158.777 102.67 159.221 102.674 159.706V161H100.866ZM104.05 161V159.719C104.05 159.35 104.119 158.967 104.257 158.57C104.399 158.168 104.592 157.789 104.835 157.433C105.082 157.073 105.358 156.769 105.664 156.522L106.719 157.207C106.472 157.58 106.264 157.969 106.097 158.375C105.934 158.777 105.854 159.221 105.858 159.706V161H104.05ZM108.417 169.842V156.981H110.747V162.426H116.707V156.981H119.043V169.842H116.707V164.379H110.747V169.842H108.417ZM125.747 170.03C124.78 170.03 123.944 169.83 123.241 169.428C122.542 169.022 122.004 168.448 121.627 167.707C121.25 166.962 121.062 166.085 121.062 165.076C121.062 164.083 121.25 163.213 121.627 162.463C122.008 161.71 122.54 161.124 123.222 160.705C123.905 160.282 124.706 160.071 125.627 160.071C126.222 160.071 126.783 160.167 127.31 160.359C127.842 160.548 128.311 160.841 128.717 161.239C129.127 161.636 129.45 162.143 129.684 162.758C129.919 163.37 130.036 164.098 130.036 164.944V165.641H122.13V164.109H127.857C127.853 163.673 127.758 163.286 127.574 162.947C127.39 162.603 127.133 162.333 126.802 162.137C126.475 161.94 126.094 161.842 125.659 161.842C125.194 161.842 124.786 161.955 124.434 162.181C124.083 162.403 123.808 162.696 123.612 163.06C123.419 163.42 123.321 163.815 123.316 164.247V165.584C123.316 166.145 123.419 166.627 123.624 167.029C123.829 167.426 124.116 167.732 124.485 167.946C124.853 168.155 125.284 168.26 125.778 168.26C126.109 168.26 126.408 168.214 126.676 168.121C126.944 168.025 127.177 167.885 127.373 167.701C127.57 167.516 127.719 167.288 127.819 167.016L129.942 167.255C129.808 167.816 129.552 168.306 129.176 168.724C128.803 169.139 128.326 169.461 127.744 169.691C127.162 169.917 126.496 170.03 125.747 170.03ZM134.233 156.981V169.842H131.959V156.981H134.233ZM138.844 156.981V169.842H136.57V156.981H138.844ZM145.389 170.03C144.447 170.03 143.63 169.823 142.94 169.409C142.249 168.994 141.713 168.414 141.332 167.669C140.955 166.924 140.767 166.053 140.767 165.057C140.767 164.06 140.955 163.187 141.332 162.438C141.713 161.689 142.249 161.107 142.94 160.692C143.63 160.278 144.447 160.071 145.389 160.071C146.331 160.071 147.147 160.278 147.838 160.692C148.529 161.107 149.063 161.689 149.439 162.438C149.82 163.187 150.011 164.06 150.011 165.057C150.011 166.053 149.82 166.924 149.439 167.669C149.063 168.414 148.529 168.994 147.838 169.409C147.147 169.823 146.331 170.03 145.389 170.03ZM145.401 168.209C145.912 168.209 146.339 168.069 146.682 167.789C147.026 167.504 147.281 167.123 147.449 166.646C147.62 166.168 147.706 165.637 147.706 165.051C147.706 164.46 147.62 163.926 147.449 163.449C147.281 162.968 147.026 162.585 146.682 162.3C146.339 162.015 145.912 161.873 145.401 161.873C144.878 161.873 144.443 162.015 144.095 162.3C143.752 162.585 143.494 162.968 143.323 163.449C143.155 163.926 143.071 164.46 143.071 165.051C143.071 165.637 143.155 166.168 143.323 166.646C143.494 167.123 143.752 167.504 144.095 167.789C144.443 168.069 144.878 168.209 145.401 168.209ZM154.722 156.981L154.515 166.062H152.493L152.292 156.981H154.722ZM153.504 169.98C153.123 169.98 152.796 169.846 152.524 169.578C152.256 169.31 152.122 168.984 152.122 168.599C152.122 168.222 152.256 167.9 152.524 167.632C152.796 167.364 153.123 167.23 153.504 167.23C153.877 167.23 154.199 167.364 154.471 167.632C154.747 167.9 154.886 168.222 154.886 168.599C154.886 168.854 154.821 169.086 154.691 169.296C154.565 169.505 154.398 169.673 154.188 169.798C153.983 169.92 153.755 169.98 153.504 169.98ZM159.325 156.981V158.262C159.325 158.63 159.254 159.013 159.112 159.411C158.974 159.805 158.783 160.182 158.54 160.542C158.298 160.897 158.021 161.203 157.712 161.458L156.656 160.774C156.887 160.426 157.088 160.052 157.259 159.65C157.431 159.244 157.517 158.785 157.517 158.275V156.981H159.325ZM162.497 156.981V158.262C162.497 158.63 162.426 159.013 162.283 159.411C162.145 159.805 161.955 160.182 161.712 160.542C161.469 160.897 161.195 161.203 160.889 161.458L159.834 160.774C160.06 160.426 160.259 160.052 160.431 159.65C160.602 159.244 160.688 158.785 160.688 158.275V156.981H162.497Z" fill="#545454"/>
<path d="M307.883 339.105V337.824C307.883 337.456 307.952 337.073 308.09 336.675C308.233 336.273 308.425 335.894 308.668 335.538C308.915 335.178 309.191 334.875 309.497 334.628L310.552 335.312C310.305 335.685 310.098 336.074 309.93 336.48C309.767 336.882 309.688 337.326 309.692 337.812V339.105H307.883ZM311.067 339.105V337.824C311.067 337.456 311.136 337.073 311.274 336.675C311.417 336.273 311.609 335.894 311.852 335.538C312.099 335.178 312.375 334.875 312.681 334.628L313.736 335.312C313.489 335.685 313.282 336.074 313.114 336.48C312.951 336.882 312.871 337.326 312.876 337.812V339.105H311.067ZM315.435 347.947V335.086H317.765V340.531H323.724V335.086H326.06V347.947H323.724V342.484H317.765V347.947H315.435ZM332.764 348.136C331.797 348.136 330.962 347.935 330.258 347.533C329.559 347.127 329.021 346.553 328.644 345.812C328.268 345.067 328.079 344.19 328.079 343.181C328.079 342.189 328.268 341.318 328.644 340.568C329.025 339.815 329.557 339.229 330.24 338.81C330.922 338.387 331.724 338.176 332.645 338.176C333.239 338.176 333.8 338.272 334.328 338.465C334.859 338.653 335.328 338.946 335.734 339.344C336.145 339.742 336.467 340.248 336.702 340.864C336.936 341.475 337.053 342.203 337.053 343.049V343.746H329.147V342.214H334.874C334.87 341.778 334.776 341.391 334.592 341.052C334.407 340.709 334.15 340.439 333.819 340.242C333.493 340.045 333.112 339.947 332.676 339.947C332.211 339.947 331.803 340.06 331.452 340.286C331.1 340.508 330.826 340.801 330.629 341.165C330.436 341.525 330.338 341.921 330.334 342.352V343.69C330.334 344.251 330.436 344.732 330.641 345.134C330.847 345.532 331.133 345.837 331.502 346.051C331.87 346.26 332.301 346.365 332.795 346.365C333.126 346.365 333.426 346.319 333.693 346.227C333.961 346.13 334.194 345.99 334.391 345.806C334.587 345.622 334.736 345.394 334.836 345.121L336.959 345.36C336.825 345.921 336.57 346.411 336.193 346.83C335.82 347.244 335.343 347.566 334.761 347.797C334.179 348.023 333.513 348.136 332.764 348.136ZM341.25 335.086V347.947H338.976V335.086H341.25ZM345.861 335.086V347.947H343.587V335.086H345.861ZM352.406 348.136C351.464 348.136 350.648 347.929 349.957 347.514C349.266 347.1 348.73 346.52 348.349 345.775C347.972 345.029 347.784 344.158 347.784 343.162C347.784 342.166 347.972 341.293 348.349 340.543C348.73 339.794 349.266 339.212 349.957 338.798C350.648 338.383 351.464 338.176 352.406 338.176C353.348 338.176 354.164 338.383 354.855 338.798C355.546 339.212 356.08 339.794 356.457 340.543C356.838 341.293 357.028 342.166 357.028 343.162C357.028 344.158 356.838 345.029 356.457 345.775C356.08 346.52 355.546 347.1 354.855 347.514C354.164 347.929 353.348 348.136 352.406 348.136ZM352.419 346.315C352.929 346.315 353.356 346.174 353.7 345.894C354.043 345.609 354.298 345.228 354.466 344.751C354.638 344.274 354.723 343.742 354.723 343.156C354.723 342.565 354.638 342.032 354.466 341.554C354.298 341.073 354.043 340.69 353.7 340.405C353.356 340.121 352.929 339.978 352.419 339.978C351.895 339.978 351.46 340.121 351.112 340.405C350.769 340.69 350.512 341.073 350.34 341.554C350.172 342.032 350.089 342.565 350.089 343.156C350.089 343.742 350.172 344.274 350.34 344.751C350.512 345.228 350.769 345.609 351.112 345.894C351.46 346.174 351.895 346.315 352.419 346.315ZM361.74 335.086L361.532 344.167H359.51L359.309 335.086H361.74ZM360.521 348.086C360.14 348.086 359.814 347.952 359.542 347.684C359.274 347.416 359.14 347.089 359.14 346.704C359.14 346.327 359.274 346.005 359.542 345.737C359.814 345.469 360.14 345.335 360.521 345.335C360.894 345.335 361.216 345.469 361.488 345.737C361.765 346.005 361.903 346.327 361.903 346.704C361.903 346.959 361.838 347.192 361.708 347.401C361.583 347.61 361.415 347.778 361.206 347.903C361.001 348.025 360.772 348.086 360.521 348.086ZM368.902 347.947V335.086H371.232V340.531H377.191V335.086H379.527V347.947H377.191V342.484H371.232V347.947H368.902ZM386.168 348.136C385.226 348.136 384.41 347.929 383.719 347.514C383.028 347.1 382.493 346.52 382.112 345.775C381.735 345.029 381.546 344.158 381.546 343.162C381.546 342.166 381.735 341.293 382.112 340.543C382.493 339.794 383.028 339.212 383.719 338.798C384.41 338.383 385.226 338.176 386.168 338.176C387.11 338.176 387.927 338.383 388.618 338.798C389.308 339.212 389.842 339.794 390.219 340.543C390.6 341.293 390.79 342.166 390.79 343.162C390.79 344.158 390.6 345.029 390.219 345.775C389.842 346.52 389.308 347.1 388.618 347.514C387.927 347.929 387.11 348.136 386.168 348.136ZM386.181 346.315C386.692 346.315 387.119 346.174 387.462 345.894C387.805 345.609 388.061 345.228 388.228 344.751C388.4 344.274 388.486 343.742 388.486 343.156C388.486 342.565 388.4 342.032 388.228 341.554C388.061 341.073 387.805 340.69 387.462 340.405C387.119 340.121 386.692 339.978 386.181 339.978C385.658 339.978 385.222 340.121 384.875 340.405C384.531 340.69 384.274 341.073 384.102 341.554C383.935 342.032 383.851 342.565 383.851 343.156C383.851 343.742 383.935 344.274 384.102 344.751C384.274 345.228 384.531 345.609 384.875 345.894C385.222 346.174 385.658 346.315 386.181 346.315ZM394.434 347.947L391.709 338.301H394.026L395.722 345.084H395.81L397.543 338.301H399.835L401.568 345.046H401.662L403.333 338.301H405.656L402.925 347.947H400.557L398.749 341.429H398.617L396.808 347.947H394.434ZM414.406 348.142C413.795 348.142 413.244 348.033 412.754 347.815C412.269 347.594 411.884 347.267 411.599 346.836C411.318 346.405 411.178 345.873 411.178 345.241C411.178 344.696 411.279 344.246 411.48 343.891C411.68 343.535 411.955 343.25 412.302 343.036C412.65 342.823 413.041 342.662 413.477 342.553C413.916 342.44 414.37 342.358 414.839 342.308C415.404 342.249 415.863 342.197 416.215 342.151C416.566 342.101 416.822 342.025 416.981 341.925C417.144 341.82 417.226 341.659 417.226 341.441V341.404C417.226 340.931 417.085 340.564 416.805 340.305C416.524 340.045 416.12 339.915 415.593 339.915C415.036 339.915 414.594 340.037 414.268 340.28C413.945 340.522 413.728 340.809 413.615 341.14L411.492 340.839C411.66 340.252 411.936 339.763 412.321 339.369C412.706 338.971 413.177 338.674 413.734 338.477C414.291 338.276 414.906 338.176 415.58 338.176C416.045 338.176 416.508 338.23 416.968 338.339C417.429 338.448 417.849 338.628 418.23 338.879C418.611 339.126 418.917 339.463 419.147 339.89C419.382 340.317 419.499 340.851 419.499 341.492V347.947H417.314V346.622H417.238C417.1 346.89 416.905 347.141 416.654 347.376C416.407 347.606 416.095 347.792 415.718 347.935C415.346 348.073 414.908 348.142 414.406 348.142ZM414.996 346.472C415.453 346.472 415.848 346.382 416.183 346.202C416.518 346.017 416.776 345.775 416.956 345.473C417.14 345.172 417.232 344.843 417.232 344.487V343.35C417.161 343.409 417.039 343.464 416.868 343.514C416.7 343.564 416.512 343.608 416.302 343.646C416.093 343.683 415.886 343.717 415.681 343.746C415.476 343.775 415.298 343.801 415.147 343.821C414.808 343.868 414.504 343.943 414.236 344.048C413.968 344.152 413.757 344.299 413.602 344.487C413.447 344.671 413.37 344.91 413.37 345.203C413.37 345.622 413.523 345.938 413.828 346.151C414.134 346.365 414.523 346.472 414.996 346.472ZM421.785 347.947V338.301H423.989V339.909H424.09C424.265 339.352 424.567 338.923 424.994 338.622C425.425 338.316 425.917 338.163 426.47 338.163C426.595 338.163 426.736 338.17 426.89 338.182C427.05 338.19 427.181 338.205 427.286 338.226V340.317C427.19 340.284 427.037 340.254 426.828 340.229C426.622 340.2 426.424 340.185 426.231 340.185C425.817 340.185 425.444 340.275 425.113 340.455C424.787 340.631 424.529 340.876 424.341 341.19C424.152 341.504 424.058 341.866 424.058 342.277V347.947H421.785ZM432.669 348.136C431.702 348.136 430.867 347.935 430.164 347.533C429.465 347.127 428.927 346.553 428.55 345.812C428.173 345.067 427.985 344.19 427.985 343.181C427.985 342.189 428.173 341.318 428.55 340.568C428.931 339.815 429.463 339.229 430.145 338.81C430.827 338.387 431.629 338.176 432.55 338.176C433.145 338.176 433.706 338.272 434.233 338.465C434.765 338.653 435.234 338.946 435.64 339.344C436.05 339.742 436.373 340.248 436.607 340.864C436.841 341.475 436.959 342.203 436.959 343.049V343.746H429.052V342.214H434.78C434.775 341.778 434.681 341.391 434.497 341.052C434.313 340.709 434.055 340.439 433.725 340.242C433.398 340.045 433.017 339.947 432.582 339.947C432.117 339.947 431.709 340.06 431.357 340.286C431.005 340.508 430.731 340.801 430.534 341.165C430.342 341.525 430.243 341.921 430.239 342.352V343.69C430.239 344.251 430.342 344.732 430.547 345.134C430.752 345.532 431.039 345.837 431.407 346.051C431.776 346.26 432.207 346.365 432.701 346.365C433.032 346.365 433.331 346.319 433.599 346.227C433.867 346.13 434.099 345.99 434.296 345.806C434.493 345.622 434.641 345.394 434.742 345.121L436.864 345.36C436.731 345.921 436.475 346.411 436.098 346.83C435.726 347.244 435.248 347.566 434.667 347.797C434.085 348.023 433.419 348.136 432.669 348.136ZM444.681 351.565C444.372 351.565 444.085 351.539 443.821 351.489C443.561 351.443 443.354 351.389 443.199 351.326L443.727 349.555C444.058 349.651 444.353 349.697 444.612 349.693C444.872 349.689 445.1 349.607 445.297 349.448C445.498 349.293 445.667 349.034 445.805 348.67L446 348.148L442.502 338.301H444.914L447.137 345.586H447.237L449.467 338.301H451.884L448.022 349.115C447.842 349.626 447.604 350.064 447.306 350.428C447.009 350.796 446.645 351.077 446.214 351.269C445.787 351.466 445.276 351.565 444.681 351.565ZM457.337 348.136C456.395 348.136 455.579 347.929 454.888 347.514C454.197 347.1 453.661 346.52 453.28 345.775C452.903 345.029 452.715 344.158 452.715 343.162C452.715 342.166 452.903 341.293 453.28 340.543C453.661 339.794 454.197 339.212 454.888 338.798C455.579 338.383 456.395 338.176 457.337 338.176C458.279 338.176 459.095 338.383 459.786 338.798C460.477 339.212 461.011 339.794 461.388 340.543C461.768 341.293 461.959 342.166 461.959 343.162C461.959 344.158 461.768 345.029 461.388 345.775C461.011 346.52 460.477 347.1 459.786 347.514C459.095 347.929 458.279 348.136 457.337 348.136ZM457.35 346.315C457.86 346.315 458.287 346.174 458.631 345.894C458.974 345.609 459.229 345.228 459.397 344.751C459.568 344.274 459.654 343.742 459.654 343.156C459.654 342.565 459.568 342.032 459.397 341.554C459.229 341.073 458.974 340.69 458.631 340.405C458.287 340.121 457.86 339.978 457.35 339.978C456.826 339.978 456.391 340.121 456.043 340.405C455.7 340.69 455.443 341.073 455.271 341.554C455.103 342.032 455.02 342.565 455.02 343.156C455.02 343.742 455.103 344.274 455.271 344.751C455.443 345.228 455.7 345.609 456.043 345.894C456.391 346.174 456.826 346.315 457.35 346.315ZM470.037 343.891V338.301H472.31V347.947H470.106V346.233H470.005C469.787 346.773 469.429 347.215 468.931 347.558C468.437 347.901 467.828 348.073 467.104 348.073C466.472 348.073 465.913 347.933 465.427 347.652C464.946 347.368 464.569 346.955 464.297 346.415C464.025 345.871 463.888 345.214 463.888 344.443V338.301H466.162V344.091C466.162 344.703 466.329 345.188 466.664 345.548C466.999 345.908 467.439 346.089 467.983 346.089C468.318 346.089 468.642 346.007 468.956 345.844C469.27 345.68 469.528 345.437 469.729 345.115C469.934 344.789 470.037 344.38 470.037 343.891ZM476.82 344.167V344.004C476.825 343.246 476.896 342.643 477.034 342.195C477.176 341.747 477.377 341.387 477.637 341.115C477.896 340.839 478.212 340.585 478.585 340.355C478.84 340.196 479.069 340.022 479.27 339.834C479.475 339.641 479.636 339.428 479.753 339.193C479.87 338.955 479.929 338.689 479.929 338.396C479.929 338.065 479.851 337.778 479.697 337.535C479.542 337.292 479.332 337.104 479.069 336.97C478.809 336.836 478.518 336.769 478.196 336.769C477.898 336.769 477.616 336.834 477.348 336.964C477.084 337.089 476.864 337.282 476.688 337.542C476.517 337.797 476.421 338.121 476.4 338.515H474.164C474.185 337.719 474.377 337.054 474.742 336.518C475.11 335.982 475.596 335.58 476.199 335.312C476.806 335.044 477.476 334.91 478.208 334.91C479.008 334.91 479.711 335.051 480.318 335.331C480.93 335.612 481.405 336.011 481.744 336.53C482.087 337.045 482.259 337.657 482.259 338.364C482.259 338.841 482.181 339.269 482.026 339.645C481.876 340.022 481.66 340.357 481.38 340.65C481.099 340.943 480.766 341.205 480.381 341.435C480.042 341.644 479.764 341.862 479.546 342.088C479.332 342.314 479.173 342.58 479.069 342.886C478.968 343.187 478.916 343.56 478.912 344.004V344.167H476.82ZM477.913 348.086C477.536 348.086 477.212 347.952 476.94 347.684C476.668 347.416 476.531 347.089 476.531 346.704C476.531 346.327 476.668 346.005 476.94 345.737C477.212 345.469 477.536 345.335 477.913 345.335C478.286 345.335 478.608 345.469 478.88 345.737C479.156 346.005 479.295 346.327 479.295 346.704C479.295 346.959 479.23 347.192 479.1 347.401C478.974 347.61 478.807 347.778 478.598 347.903C478.392 348.025 478.164 348.086 477.913 348.086ZM486.195 335.086V336.367C486.195 336.736 486.124 337.119 485.981 337.516C485.843 337.91 485.653 338.287 485.41 338.647C485.167 339.003 484.891 339.308 484.581 339.564L483.526 338.879C483.756 338.532 483.957 338.157 484.129 337.755C484.3 337.349 484.386 336.891 484.386 336.38V335.086H486.195ZM489.366 335.086V336.367C489.366 336.736 489.295 337.119 489.153 337.516C489.014 337.91 488.824 338.287 488.581 338.647C488.338 339.003 488.064 339.308 487.758 339.564L486.703 338.879C486.929 338.532 487.128 338.157 487.3 337.755C487.472 337.349 487.557 336.891 487.557 336.38V335.086H489.366Z" fill="#545454"/>
<g clip-path="url(#clip4_561_930)">
<path d="M259.89 257.545C258.143 257.179 256.424 256.732 254.738 256.219L260.528 220.316L266.525 220.131L277.401 219.787L282.979 219.613C282.979 219.613 286.935 236.999 289.953 256.694C287.114 257.476 284.224 258.056 281.303 258.429C278.813 258.749 276.305 258.921 273.794 258.942C273.587 258.947 273.379 258.947 273.172 258.947C271.802 258.947 270.438 258.904 269.09 258.816C267.911 258.74 266.744 258.636 265.587 258.494C263.802 258.282 262.04 257.998 260.304 257.627C260.228 257.616 260.151 257.599 260.075 257.583C260.015 257.572 259.949 257.556 259.89 257.545Z" fill="#CBCBCB"/>
<path d="M260.304 257.627C260.228 257.616 260.152 257.599 260.075 257.583C260.015 257.572 259.95 257.556 259.89 257.545C258.143 257.179 256.424 256.732 254.738 256.219C253.15 255.739 251.591 255.197 250.061 254.593C249.668 254.44 249.281 254.287 248.893 254.123C247.928 253.719 246.973 253.299 246.034 252.846C245.761 252.721 245.494 252.59 245.226 252.459L244.746 225.577L259.48 219.263C259.48 219.263 259.529 219.656 266.525 220.131C267.857 224.475 260.304 257.627 260.304 257.627Z" fill="#2F2E41"/>
<path d="M304.343 224.306L301.566 238.903L301.827 252.104C301.02 252.519 300.205 252.912 299.383 253.283C299.355 253.294 299.333 253.305 299.306 253.316C299.115 253.403 298.913 253.496 298.717 253.578C297.194 254.254 295.639 254.871 294.056 255.417C292.708 255.891 291.341 256.317 289.953 256.694C287.114 257.477 284.224 258.056 281.303 258.429C278.813 258.749 276.305 258.921 273.794 258.942L273.505 235.547C272.894 228.006 274.918 223.018 277.401 219.787C290.635 218.019 290.34 217.861 290.34 217.861L304.37 224.175L304.343 224.306Z" fill="#2F2E41"/>
<path d="M251.06 227.684L250.061 254.593C249.668 254.44 249.281 254.287 248.893 254.123C247.928 253.719 246.973 253.299 246.034 252.846C245.761 252.721 245.494 252.59 245.226 252.459C244.32 252.017 243.425 251.553 242.552 251.062C241.499 250.478 240.464 249.865 239.447 249.223L244.746 225.577L251.06 227.684Z" fill="#2F2E41"/>
<path d="M288.234 199.317C290.659 191.045 285.936 182.378 277.685 179.959C269.434 177.54 260.78 182.285 258.354 190.557C255.929 198.83 260.652 207.497 268.903 209.916C277.154 212.335 285.809 207.59 288.234 199.317Z" fill="#9F616A"/>
<path d="M257.615 198.851V192.776C257.615 192.776 252.716 187.007 258.105 185.554C258.105 185.554 259.574 171.02 272.311 177.803C272.311 177.803 289.946 174.896 287.987 185.069C287.987 185.069 292.396 182.413 290.926 189.196L288.084 200.12C288.084 200.12 289.456 192.904 285.048 191.935L282.598 190.482C282.598 190.482 275.74 197.264 265.453 189.028C265.453 189.028 261.044 187.976 261.534 192.336C262.024 196.696 257.615 198.851 257.615 198.851Z" fill="#2F2E41"/>
<path d="M272.778 149.053C261.772 149.051 251.069 152.652 242.297 159.307C233.526 165.963 227.169 175.307 224.194 185.916C221.219 196.525 221.79 207.816 225.82 218.07C229.85 228.324 237.117 236.978 246.515 242.712L246.84 242.902C247.109 243.065 247.379 243.222 247.648 243.374C248.102 243.644 248.556 243.902 249.021 244.149C249.335 244.312 249.649 244.48 249.963 244.637C253.466 246.427 257.168 247.795 260.992 248.713C261.783 248.904 262.573 249.078 263.381 249.224C266.478 249.811 269.625 250.107 272.778 250.105C273.574 250.105 274.364 250.088 275.155 250.049C276.265 249.999 277.364 249.911 278.452 249.785C279.769 249.639 281.07 249.441 282.354 249.19C284.947 248.69 287.497 247.986 289.98 247.085C290.294 246.967 290.607 246.849 290.916 246.731C291.762 246.406 292.594 246.058 293.411 245.687C294.308 245.283 295.192 244.852 296.063 244.396C304.791 239.819 312.006 232.804 316.831 224.202C316.853 224.157 316.881 224.112 316.904 224.067C319.478 219.442 321.304 214.438 322.314 209.241C323.733 201.924 323.518 194.384 321.685 187.16C319.852 179.937 316.447 173.208 311.713 167.457C306.98 161.705 301.034 157.072 294.303 153.891C287.572 150.709 280.221 149.057 272.778 149.053ZM315.984 223.411C315.939 223.489 315.9 223.568 315.855 223.641C311.127 232.116 304.014 239.011 295.401 243.469C294.543 243.919 293.67 244.34 292.783 244.733C292.048 245.064 291.297 245.378 290.54 245.67C290.22 245.794 289.895 245.917 289.57 246.029C287.425 246.814 285.228 247.444 282.993 247.916C281.336 248.269 279.661 248.533 277.975 248.707C276.938 248.82 275.884 248.898 274.824 248.938C274.146 248.966 273.462 248.982 272.778 248.982C269.726 248.986 266.681 248.702 263.683 248.135C261.859 247.798 260.057 247.356 258.284 246.81C255.583 245.974 252.959 244.91 250.44 243.627C250.148 243.475 249.857 243.324 249.571 243.166C249.161 242.947 248.747 242.723 248.343 242.481C248.04 242.313 247.737 242.133 247.44 241.954C247.266 241.853 247.092 241.746 246.919 241.639C238.679 236.573 232.106 229.196 228.016 220.423C223.926 211.65 222.498 201.868 223.909 192.29C225.321 182.713 229.51 173.76 235.956 166.545C242.403 159.329 250.823 154.167 260.173 151.699C269.523 149.231 279.39 149.566 288.552 152.663C297.713 155.759 305.765 161.481 311.708 169.117C317.652 176.754 321.225 185.97 321.985 195.621C322.745 205.273 320.659 214.936 315.984 223.411Z" fill="#3F3D56"/>
</g>
</g>
</g>
<defs>
<clipPath id="clip0_561_930">
<rect width="504" height="480" fill="white"/>
</clipPath>
<clipPath id="clip1_561_930">
<rect width="183.158" height="73.2149" fill="white" transform="translate(320.842)"/>
</clipPath>
<clipPath id="clip2_561_930">
<rect width="496.421" height="415.579" fill="white" transform="translate(0 64.4211)"/>
</clipPath>
<clipPath id="clip3_561_930">
<rect x="173.33" y="323.087" width="100.223" height="101.053" rx="50.1115" fill="white"/>
</clipPath>
<clipPath id="clip4_561_930">
<rect x="222.316" y="149.053" width="101.053" height="101.053" rx="50.5263" fill="white"/>
</clipPath>
</defs>
</svg>
