<?xml version="1.0" standalone="no"?>
<!DOCTYPE svg PUBLIC "-//W3C//DTD SVG 20010904//EN"
 "http://www.w3.org/TR/2001/REC-SVG-20010904/DTD/svg10.dtd">
<svg version="1.0" xmlns="http://www.w3.org/2000/svg"
 width="468.000000pt" height="468.000000pt" viewBox="0 0 468.000000 468.000000"
 preserveAspectRatio="xMidYMid meet">
<metadata>
Created by potrace 1.14, written by Peter Selinger 2001-2017
</metadata>
<g transform="translate(0.000000,468.000000) scale(0.100000,-0.100000)"
fill="#000000" stroke="none">
<path d="M1898 4178 c-10 -12 -18 -28 -18 -35 0 -7 -4 -13 -9 -13 -5 0 -14
-15 -22 -32 -7 -18 -15 -35 -18 -38 -3 -3 -17 -25 -30 -50 -14 -25 -29 -48
-34 -51 -5 -3 -9 -10 -9 -15 0 -5 -10 -27 -23 -49 -110 -192 -175 -309 -175
-315 0 -4 -7 -13 -15 -20 -8 -7 -13 -16 -10 -20 3 -5 2 -10 -2 -12 -10 -4 -40
-53 -60 -98 -8 -19 -19 -37 -23 -40 -4 -3 -22 -32 -39 -65 -18 -33 -36 -67
-41 -75 -24 -38 -128 -223 -147 -262 -8 -15 -19 -30 -24 -33 -5 -4 -7 -11 -4
-16 4 -5 2 -9 -3 -9 -5 0 -12 -8 -16 -17 -3 -10 -19 -40 -35 -68 -16 -27 -40
-68 -52 -90 -12 -22 -27 -49 -33 -60 -21 -37 -137 -240 -146 -255 -51 -86
-170 -301 -170 -309 0 -5 -3 -11 -7 -13 -9 -3 -23 -28 -73 -123 -18 -33 -43
-75 -56 -93 -14 -17 -22 -32 -19 -32 8 0 -47 -94 -57 -98 -4 -2 -8 -12 -8 -23
0 -10 -4 -19 -9 -19 -5 0 -11 -8 -15 -17 -3 -10 -19 -40 -35 -68 -16 -27 -39
-66 -49 -85 -104 -187 -213 -377 -222 -387 -5 -7 -10 -15 -10 -19 0 -11 -104
-188 -115 -196 -5 -4 -6 -8 -2 -8 5 0 1 -12 -7 -28 -15 -29 -29 -62 -30 -75
-1 -4 -7 -12 -15 -16 -9 -6 -10 -10 -2 -16 9 -5 9 -10 1 -21 -13 -15 -5 -91
12 -111 6 -7 7 -13 4 -13 -12 0 37 -81 65 -109 14 -14 46 -37 70 -51 l44 -25
1873 -3 1872 -2 0 280 c0 260 -1 280 -17 280 -53 2 -590 1 -598 -1 -5 -1 -14
-1 -19 0 -7 2 -341 2 -406 0 -11 0 -539 0 -640 0 -8 0 -130 1 -270 1 -140 1
-259 0 -265 -1 -5 -1 -14 -1 -19 0 -7 2 -184 2 -411 0 -11 0 -136 1 -277 1
-231 1 -288 6 -259 24 5 3 18 24 29 45 29 56 46 85 52 91 3 3 11 16 18 30 6
14 20 39 30 55 9 17 35 62 56 100 22 39 46 78 54 88 8 9 12 17 7 17 -4 0 -3 6
3 13 17 20 162 279 162 288 0 5 4 9 8 9 4 0 13 12 19 28 7 15 20 41 30 57 19
30 105 183 151 265 30 53 55 97 82 145 11 19 29 52 41 73 12 20 25 42 30 48 5
6 7 13 4 16 -3 3 1 11 10 18 8 7 15 17 15 22 0 5 5 14 10 21 10 12 155 264
227 396 19 35 55 97 79 138 24 41 44 76 44 78 0 2 23 43 51 92 28 48 65 113
82 143 59 107 66 119 91 159 15 22 26 42 26 44 0 2 43 80 95 172 52 92 95 171
95 176 0 7 -443 309 -452 309 -2 0 -11 -10 -20 -22z"/>
<path d="M3375 3891 c-3 -5 0 -13 6 -17 12 -7 -6 -24 -26 -24 -5 0 -3 5 5 10
10 6 -12 9 -67 6 -55 -2 -80 1 -79 8 2 6 1 8 -1 3 -3 -4 -10 -4 -15 -1 -7 4
-8 2 -4 -4 10 -16 -7 -15 -23 1 -11 10 -12 9 -6 -2 6 -11 4 -13 -8 -8 -9 3
-19 1 -23 -5 -4 -7 -9 -6 -15 3 -7 12 -9 12 -9 0 0 -9 -8 -12 -25 -9 -13 3
-26 0 -29 -6 -3 -7 -5 -7 -5 2 -1 6 -9 12 -18 12 -15 0 -16 -2 -3 -10 13 -9
13 -10 0 -11 -46 -4 -73 -9 -78 -13 -3 -3 -11 -1 -19 6 -10 8 -12 8 -8 -3 3
-9 -1 -15 -12 -17 -19 -2 -35 -6 -70 -17 -17 -5 -22 -13 -19 -29 4 -19 56
-150 92 -233 8 -17 14 -38 14 -47 0 -9 5 -16 10 -16 6 0 10 -8 10 -18 0 -10 4
-22 8 -27 5 -6 24 -52 43 -103 23 -62 40 -94 53 -98 10 -3 21 -2 25 2 3 5 15
9 26 8 11 0 24 2 30 5 23 12 203 16 245 6 14 -4 34 -7 45 -9 43 -4 179 -62
229 -99 68 -48 132 -100 135 -110 2 -7 19 -30 36 -52 47 -58 106 -176 121
-240 2 -5 5 -21 9 -35 24 -104 22 -247 -4 -314 -6 -15 -10 -33 -9 -40 1 -6
-11 -38 -26 -71 -16 -33 -30 -63 -30 -67 -1 -3 -10 -19 -22 -35 -11 -15 -22
-32 -23 -38 -4 -14 -160 -165 -172 -165 -5 0 -19 -9 -31 -20 -12 -10 -24 -17
-28 -15 -12 7 -35 -26 -35 -51 -1 -12 2 -21 6 -18 5 3 20 -30 16 -39 0 -1 6
-13 13 -27 8 -14 15 -29 16 -35 1 -5 10 -28 20 -50 10 -22 19 -44 19 -50 1 -5
9 -26 18 -45 21 -48 30 -74 29 -82 -1 -5 2 -8 6 -8 9 0 37 -78 34 -92 -1 -5 2
-8 6 -8 5 0 14 -18 21 -41 10 -32 16 -39 29 -34 9 4 27 10 40 12 12 3 22 9 22
14 0 5 6 9 13 9 7 0 30 9 52 20 22 11 35 20 30 20 -6 0 5 9 23 20 18 11 37 18
42 15 6 -4 7 2 3 12 -6 16 -5 17 12 3 17 -14 18 -13 13 2 -7 18 16 33 34 21 6
-3 9 -2 5 3 -3 5 1 18 9 29 8 10 14 16 14 12 0 -4 13 6 29 22 20 21 32 26 39
19 8 -8 9 -5 5 11 -6 25 5 28 21 5 10 -13 12 -13 12 5 0 11 -4 17 -8 15 -13
-8 -9 7 6 22 13 12 16 12 26 -3 10 -16 10 -15 5 4 -6 23 21 72 39 73 5 0 1
-10 -10 -22 l-19 -23 22 19 c18 15 20 22 12 33 -10 11 -8 12 6 7 12 -5 16 -4
11 4 -3 6 -2 13 4 17 6 4 7 12 3 18 -4 7 2 5 12 -3 11 -9 16 -10 11 -2 -4 7
-2 12 4 12 6 0 8 5 5 10 -4 6 -1 17 5 25 14 17 35 21 25 5 -3 -6 1 -7 10 -4
14 6 14 8 -2 21 -17 13 -16 14 7 7 22 -5 23 -5 8 7 -13 11 -15 18 -7 29 10 13
10 13 6 -1 -3 -9 1 -16 8 -16 8 0 11 7 7 16 -5 14 -4 14 13 1 17 -14 17 -14 5
7 -8 12 -19 19 -25 16 -5 -4 -2 3 8 14 9 11 14 23 10 28 -5 4 -2 5 5 1 9 -6
10 -11 2 -21 -8 -9 -7 -14 3 -18 11 -4 13 4 10 34 -3 24 0 39 7 39 6 0 9 -4 6
-8 -2 -4 0 -14 5 -22 8 -12 9 -11 7 5 -2 13 2 19 11 17 12 -3 12 0 1 12 -12
15 -7 21 14 17 5 -1 3 5 -4 14 -16 20 -23 48 -9 39 5 -3 6 -10 3 -16 -4 -7 -2
-8 4 -4 6 4 9 13 5 21 -4 11 0 14 13 9 17 -6 17 -5 -1 10 -20 17 -20 17 2 13
19 -4 21 -2 13 13 -5 9 -6 20 -3 24 3 3 0 6 -7 6 -7 0 -11 3 -8 6 4 3 17 0 30
-6 18 -10 21 -10 11 0 -14 15 -6 42 11 33 7 -4 7 -1 -1 7 -10 11 -9 16 5 27
15 12 14 13 -6 3 -13 -7 -26 -9 -30 -6 -3 3 0 6 6 6 6 0 9 7 6 15 -4 8 -1 15
6 15 6 0 8 -5 4 -12 -4 -7 2 -5 14 6 12 10 19 22 17 27 -3 4 3 15 12 25 17 17
17 17 1 11 -12 -4 -21 0 -29 15 -9 16 -8 19 2 13 9 -6 11 -3 6 8 -3 9 -2 19 3
22 4 3 7 -5 6 -18 -2 -13 2 -24 9 -24 12 0 12 21 0 50 -6 15 -10 15 -24 5 -14
-12 -15 -11 -2 5 13 17 15 17 35 0 21 -18 21 -18 5 2 -17 20 -15 50 2 40 5 -4
6 2 2 11 -6 16 -8 15 -16 -4 -6 -12 -14 -22 -20 -22 -5 0 -4 7 3 15 6 8 8 20
4 26 -4 8 -3 9 4 5 11 -6 30 26 36 59 1 6 6 17 11 25 8 13 7 13 -8 1 -16 -13
-25 -2 -10 12 11 12 12 57 1 57 -6 0 -3 10 8 22 15 19 16 20 2 9 -16 -12 -18
-11 -18 8 0 11 4 21 9 21 6 0 9 9 8 20 -1 11 -5 20 -10 20 -5 0 -4 7 3 15 10
12 6 17 -22 29 -18 8 -27 15 -19 15 11 1 10 6 -5 23 -15 19 -16 20 -1 9 11 -9
17 -10 17 -2 0 6 3 10 8 9 4 -2 7 2 7 7 0 6 -3 9 -6 8 -11 -4 -7 51 4 67 7 8
2 7 -10 -4 -13 -10 -19 -24 -16 -30 4 -6 8 -19 8 -30 2 -17 1 -17 -10 -3 -7 9
-16 13 -20 9 -5 -4 -4 0 1 8 15 27 14 49 -4 52 -14 3 -13 5 6 10 14 4 20 2 15
-4 -3 -7 -1 -8 5 -4 13 8 -4 56 -20 56 -11 0 -10 -14 2 -26 6 -6 2 -10 -13
-11 -12 0 -16 1 -9 4 10 4 10 10 -3 30 -9 14 -14 27 -11 31 3 3 6 -1 6 -8 0
-7 3 -10 7 -6 10 10 13 76 3 76 -4 0 -7 -10 -6 -22 0 -11 -6 -23 -14 -25 -9
-3 -11 -1 -5 4 14 11 17 33 5 33 -6 0 -10 -5 -10 -12 0 -6 -3 -8 -7 -4 -5 4
-1 13 8 19 15 11 19 18 19 35 0 4 5 0 11 -8 9 -13 10 -13 6 0 -2 8 -9 15 -15
15 -7 0 -11 4 -9 10 1 5 7 9 12 7 6 -2 4 2 -2 9 -15 15 -22 10 -28 -20 -2 -14
0 -19 7 -15 7 4 8 3 4 -4 -10 -17 -29 -15 -22 3 3 8 -3 19 -12 25 -16 11 -16
11 1 6 25 -8 21 7 -9 33 -19 17 -23 26 -15 34 16 16 14 32 -3 18 -10 -8 -16
-9 -21 -1 -4 6 -1 9 7 8 8 -2 12 6 11 22 -3 23 -2 24 11 7 8 -10 17 -14 20 -9
6 9 -13 22 -41 28 -10 2 -10 -3 -3 -17 7 -13 7 -19 0 -19 -5 0 -10 7 -10 15 0
8 -5 15 -11 15 -6 0 -8 9 -3 22 6 20 5 21 -10 9 -10 -9 -16 -10 -16 -2 0 6 5
11 12 11 6 0 8 3 4 8 -4 4 -11 7 -15 7 -4 0 -15 8 -25 18 -10 9 -12 17 -6 17
6 0 9 4 5 9 -3 5 0 13 6 17 8 5 9 3 4 -6 -5 -8 -4 -11 3 -6 7 4 9 -3 7 -21 -2
-16 -2 -22 1 -15 4 8 11 5 25 -10 10 -13 18 -18 19 -11 0 6 -5 13 -11 15 -8 3
-15 19 -18 49 -2 16 -32 17 -46 2 -15 -14 -15 -13 -9 11 3 15 1 32 -5 40 -9
11 -9 15 1 20 7 3 3 3 -8 1 -20 -5 -40 16 -35 38 0 4 -6 10 -14 13 -8 3 -12
10 -9 15 3 5 0 8 -8 7 -8 -2 -12 5 -10 17 2 16 1 17 -7 5 -10 -13 -15 -7 -12
12 0 5 -3 7 -8 5 -5 -1 -18 9 -30 22 -12 13 -21 19 -21 14 0 -6 7 -16 15 -23
8 -7 12 -17 8 -23 -4 -6 -1 -7 7 -2 9 6 11 4 5 -5 -6 -9 -4 -11 5 -5 9 6 11 4
5 -5 -5 -9 -4 -11 3 -6 8 5 10 1 5 -10 -5 -13 -3 -16 10 -11 9 3 18 3 21 -1 3
-4 -4 -8 -14 -9 -11 -1 -29 11 -40 28 -12 16 -18 29 -14 29 13 0 -15 24 -31
26 -26 4 -74 48 -69 64 9 26 9 28 0 28 -5 0 -12 6 -16 12 -5 8 -9 7 -13 -4 -4
-9 -3 -15 1 -13 4 1 8 -1 10 -5 2 -9 4 -9 -26 -1 -14 3 -21 11 -18 19 7 18 -3
44 -16 44 -6 0 -6 -6 1 -14 15 -17 1 -28 -19 -15 -9 5 -10 9 -3 9 15 0 10 35
-5 36 -7 1 -17 2 -23 3 -5 0 -7 6 -3 13 4 6 3 8 -4 4 -6 -3 -17 1 -26 9 -8 8
-19 15 -23 14 -20 -3 -27 2 -13 12 13 9 13 10 0 8 -27 -3 -41 1 -36 9 3 5 -1
9 -9 9 -11 0 -12 -4 -4 -13 7 -8 6 -14 -2 -20 -8 -5 -9 -3 -4 6 6 10 3 12 -13
8 -12 -4 -22 -2 -22 3 0 5 5 9 12 9 6 0 8 3 5 6 -4 4 -14 1 -24 -7 -11 -9 -14
-10 -9 -2 5 9 0 12 -16 11 -13 -1 -40 9 -61 21 -21 12 -44 18 -50 14 -7 -4 -5
2 3 13 8 10 10 16 6 12 -5 -4 -15 -3 -23 4 -10 8 -12 8 -8 -4 4 -9 0 -15 -10
-15 -11 0 -14 6 -9 21 5 20 5 20 -11 -2 -14 -19 -43 -23 -31 -3 3 4 1 13 -5
21 -7 12 -9 11 -9 -5 0 -17 -2 -17 -10 -5 -9 13 -10 13 -10 0 -1 -9 -6 -6 -16
10 -8 14 -13 17 -10 7 5 -15 1 -17 -22 -13 -15 2 -29 5 -32 6 -3 1 -8 2 -12 1
-5 0 -8 4 -8 10 0 8 -6 7 -17 -2 -15 -12 -16 -12 -10 3 3 10 2 20 -4 23 -5 4
-9 3 -8 -2 3 -20 -2 -25 -16 -13 -8 7 -12 16 -9 21 3 5 3 9 0 9 -3 0 -7 -4
-11 -9z m519 -183 c-3 -5 -12 -4 -20 3 -7 6 -11 15 -8 21 3 5 12 4 20 -3 7 -6
11 -15 8 -21z m30 3 c3 -5 -1 -11 -9 -14 -9 -4 -12 -1 -8 9 6 16 10 17 17 5z
m71 -34 c4 5 5 3 2 -4 -8 -13 -47 -6 -47 9 0 5 -5 6 -12 2 -7 -4 -8 -3 -4 4 5
9 13 8 30 -3 12 -8 26 -12 31 -8z m288 -244 c-17 -6 -17 -24 -1 -20 7 1 13 -4
14 -10 1 -7 2 -17 3 -22 0 -5 8 -8 17 -7 9 0 19 -5 21 -11 10 -28 -25 -11 -55
26 -30 37 -29 49 3 49 6 0 4 -2 -2 -5z m307 -713 c0 -5 -5 -10 -11 -10 -5 0
-7 5 -4 10 3 6 8 10 11 10 2 0 4 -4 4 -10z m22 -13 c-6 -7 -7 -18 -2 -27 9
-15 -15 -60 -34 -60 -8 0 -8 2 0 8 13 8 12 40 -1 61 -5 10 -4 12 4 7 6 -4 14
0 17 8 3 9 11 16 16 16 7 0 7 -4 0 -13z m-11 -106 c-10 -7 -11 -9 0 -13 17 -6
19 -49 2 -55 -12 -5 -12 -8 1 -22 12 -13 12 -20 2 -40 -11 -20 -14 -21 -19 -7
-4 10 -3 15 3 11 11 -7 9 23 -3 43 -5 7 -2 14 7 18 14 5 14 9 1 34 -14 27 -11
40 9 40 6 0 5 -4 -3 -9z m-26 -340 c-2 -25 -18 -29 -20 -5 -1 11 4 21 10 21 6
0 11 -7 10 -16z m-25 -86 c0 -2 -6 -8 -13 -14 -10 -8 -14 -7 -14 2 0 8 6 14
14 14 7 0 13 -1 13 -2z m-69 -168 c-6 -8 -7 -18 -3 -22 4 -5 2 -5 -5 -1 -14 8
-6 36 9 36 7 0 6 -5 -1 -13z"/>
<path d="M4590 2659 c0 -5 5 -7 10 -4 6 3 10 8 10 11 0 2 -4 4 -10 4 -5 0 -10
-5 -10 -11z"/>
<path d="M3270 3886 c0 -2 7 -7 16 -10 8 -3 12 -2 9 4 -6 10 -25 14 -25 6z"/>
<path d="M3476 3867 c3 -10 9 -15 12 -12 3 3 0 11 -7 18 -10 9 -11 8 -5 -6z"/>
<path d="M3593 3848 c1 -15 6 -23 11 -18 4 4 4 16 -2 26 -9 16 -10 14 -9 -8z"/>
<path d="M3695 3821 c-6 -11 13 -26 22 -17 4 3 1 6 -6 6 -7 0 -9 5 -6 10 3 6
4 10 1 10 -3 0 -7 -4 -11 -9z"/>
<path d="M3735 3809 c-4 -6 -5 -12 -2 -15 2 -3 7 2 10 11 7 17 1 20 -8 4z"/>
<path d="M3752 3791 c2 -7 7 -12 11 -12 12 1 9 15 -3 20 -7 2 -11 -2 -8 -8z"/>
<path d="M4128 3560 c38 -35 42 -36 42 -14 0 11 -5 14 -16 10 -12 -5 -15 -2
-10 9 3 9 2 13 -4 10 -6 -3 -10 -1 -10 4 0 6 -8 11 -17 11 -13 0 -9 -8 15 -30z"/>
<path d="M4430 3240 c-8 -15 -8 -18 3 -14 8 3 14 11 14 19 0 20 -4 19 -17 -5z"/>
<path d="M4473 3151 c-10 -15 -9 -22 6 -35 22 -20 31 -20 31 -2 0 8 -7 16 -15
20 -8 3 -12 12 -9 21 8 21 1 19 -13 -4z m18 -28 c13 -16 12 -17 -3 -4 -17 13
-22 21 -14 21 2 0 10 -8 17 -17z"/>
<path d="M2597 3090 c4 -15 0 -20 -15 -20 -11 0 -23 6 -25 13 -4 8 -6 7 -6 -4
-1 -11 -10 -15 -38 -13 -21 1 -46 -2 -55 -7 -10 -6 -19 -5 -23 1 -3 5 -12 10
-18 10 -7 0 -6 -4 3 -10 12 -8 9 -10 -12 -10 -40 0 -42 0 -57 -13 -7 -6 -20
-12 -28 -13 -8 -2 -17 -5 -21 -8 -5 -6 46 -144 60 -160 4 -6 8 -15 8 -22 0 -6
10 -33 22 -60 12 -27 23 -51 23 -54 15 -58 33 -79 58 -63 15 9 63 14 127 13
74 -2 91 -4 118 -18 12 -7 22 -10 22 -6 0 3 7 1 15 -6 8 -7 15 -10 15 -6 0 10
95 -52 126 -82 46 -45 123 -162 108 -162 -4 0 -2 -6 3 -12 12 -16 24 -61 29
-108 2 -19 5 -46 7 -60 2 -14 1 -29 -2 -35 -6 -12 -10 -30 -14 -65 -2 -14 -13
-47 -26 -75 -12 -27 -22 -51 -22 -52 1 -2 -7 -11 -16 -21 -10 -11 -29 -33 -43
-50 -14 -17 -28 -31 -32 -32 -4 0 -21 -13 -39 -30 -18 -16 -35 -28 -37 -25 -2
2 -11 -2 -19 -10 -12 -12 -11 -20 5 -57 17 -39 41 -98 62 -153 4 -11 15 -36
23 -55 9 -19 19 -48 23 -63 3 -16 12 -31 19 -33 16 -6 125 43 125 57 0 6 4 8
9 4 5 -3 12 -1 16 5 4 6 11 7 17 4 6 -4 8 -2 5 3 -4 6 0 16 8 23 13 11 14 10
9 -6 -3 -10 3 -4 15 14 11 18 35 41 53 52 18 11 29 20 24 20 -5 0 -1 9 9 20
10 11 24 20 32 20 7 0 13 6 13 13 0 7 7 22 16 33 8 10 13 14 10 7 -4 -6 -2
-14 3 -17 11 -7 9 13 -3 33 -5 8 -5 12 0 9 9 -6 34 15 35 29 0 5 8 8 18 7 19
0 22 19 6 33 -4 4 -5 3 -2 -3 3 -6 0 -11 -8 -11 -13 0 -13 3 0 17 8 9 12 20 8
24 -4 4 0 4 9 1 12 -5 16 0 16 20 0 35 19 55 33 35 9 -13 10 -13 6 1 -3 9 -1
21 5 27 7 7 6 17 -3 33 l-12 24 22 -20 c16 -14 22 -15 19 -5 -2 8 3 14 10 12
8 -1 11 2 7 8 -5 8 -12 7 -22 -2 -14 -11 -15 -10 -8 12 7 23 7 24 -11 10 -17
-14 -18 -14 -6 2 8 10 10 23 6 30 -6 10 -3 9 9 -1 9 -7 17 -10 17 -5 0 4 7 -1
16 -12 15 -18 15 -18 5 2 -6 12 -8 24 -5 27 3 3 -2 4 -12 4 -23 -3 -29 19 -8
27 15 6 15 4 3 -10 -13 -16 -12 -16 7 -4 14 9 21 23 20 42 0 15 -4 28 -9 28
-4 0 -5 -11 -3 -24 4 -20 1 -23 -17 -18 -15 4 -17 7 -6 11 15 6 18 29 6 48 -9
14 18 7 43 -11 13 -9 13 -9 2 6 -10 13 -10 17 0 22 7 3 3 3 -9 1 -12 -3 -25 0
-29 6 -4 7 -3 9 3 6 16 -10 34 18 26 39 -6 17 -5 18 13 4 18 -14 18 -14 5 2
-7 10 -17 15 -22 12 -5 -3 -9 0 -9 5 0 6 7 11 15 11 21 0 19 15 -3 17 -15 1
-18 -6 -18 -32 0 -18 4 -31 8 -29 5 3 8 1 8 -5 0 -5 -9 -9 -20 -8 -13 1 -16 5
-10 11 13 13 13 29 0 21 -13 -8 -8 18 5 27 6 5 4 8 -5 8 -13 0 -13 1 0 10 12
7 12 12 2 22 -9 9 -7 17 11 37 17 19 18 23 5 18 -21 -8 -46 29 -30 45 6 6 12
5 17 -3 5 -8 4 -10 -3 -5 -7 4 -12 2 -12 -3 0 -6 5 -11 11 -11 5 0 7 -4 4 -10
-4 -6 1 -7 11 -3 12 4 14 8 6 11 -10 3 -10 7 0 20 10 12 10 14 1 8 -9 -5 -12
1 -9 23 2 20 -3 39 -15 53 -11 11 -19 16 -19 10 0 -6 4 -13 9 -16 5 -4 8 -14
6 -24 -2 -9 -4 -20 -4 -24 -1 -5 -6 -8 -13 -8 -6 0 -8 3 -5 7 4 3 2 12 -5 20
-6 7 -8 16 -4 20 3 3 6 1 6 -6 0 -7 5 -9 10 -6 8 5 7 11 0 20 -12 15 1 53 17
47 4 -2 9 2 11 10 2 8 0 9 -5 3 -13 -16 -31 -16 -37 0 -3 9 0 12 10 8 22 -8
17 14 -8 31 -12 9 -17 16 -10 16 10 0 9 4 -2 16 -20 19 -21 28 -3 21 8 -3 14
1 14 8 0 10 -5 11 -18 5 -13 -7 -18 -5 -22 12 -4 12 -9 19 -13 15 -4 -4 -14
-1 -22 6 -13 10 -15 9 -9 -6 4 -11 3 -16 -4 -12 -6 4 -8 13 -5 20 2 7 2 16 -2
20 -10 9 -10 55 0 49 4 -3 6 -10 3 -15 -4 -5 -2 -9 4 -9 5 0 9 9 8 19 0 11 -6
19 -12 18 -5 -1 -9 4 -7 11 1 8 -2 11 -7 8 -5 -4 -16 0 -24 9 -13 13 -16 13
-21 -1 -3 -8 -2 -12 4 -9 6 3 10 1 10 -4 0 -6 6 -10 13 -9 6 2 10 -4 8 -12 -2
-8 -4 -20 -4 -27 0 -7 -4 -10 -8 -7 -5 2 -5 12 -2 21 5 12 3 14 -7 8 -8 -5
-11 -4 -6 3 3 6 -3 14 -15 17 -12 4 -17 10 -12 14 17 11 22 39 9 50 -17 14
-29 1 -14 -16 6 -7 8 -16 4 -20 -3 -3 -6 -1 -6 6 0 7 -4 10 -9 7 -5 -3 -8 10
-6 29 1 19 -1 32 -5 30 -12 -7 -51 35 -44 47 4 6 3 8 -4 4 -6 -3 -13 -2 -17 3
-3 6 -13 7 -23 4 -15 -6 -15 -4 -4 9 11 14 10 16 -5 13 -10 -2 -24 -4 -31 -4
-8 -1 -10 -6 -6 -13 4 -7 -2 -5 -13 5 -11 9 -26 17 -34 17 -8 1 0 7 16 14 l30
13 -43 -2 c-30 -2 -50 3 -67 17 -13 10 -28 19 -32 19 -4 0 -7 8 -5 17 2 14 0
14 -14 -3 -16 -20 -16 -20 -9 4 4 14 3 21 -2 18 -5 -3 -24 3 -42 14 -18 11
-30 15 -26 9 8 -13 -15 -13 -35 0 -12 8 -12 10 -1 10 8 0 12 3 8 6 -3 3 -11 3
-18 -2 -9 -5 -7 -11 6 -21 11 -7 14 -13 8 -13 -7 0 -18 7 -26 15 -8 8 -18 11
-21 8 -4 -4 -14 -8 -24 -9 -16 -3 -16 -2 1 10 16 12 16 14 2 20 -9 3 -14 2
-11 -3 10 -16 -26 -20 -106 -12 -5 1 -8 7 -8 15 0 8 -4 17 -9 20 -5 4 -7 -3
-4 -14z m293 -74 c0 -6 -5 -5 -12 2 -7 7 -23 12 -37 12 -19 0 -22 3 -12 9 16
10 61 -6 61 -23z m266 -131 c20 -27 4 -42 -17 -17 -9 12 -22 22 -28 22 -5 0
-12 4 -16 9 -10 18 48 4 61 -14z m49 -54 c-3 -3 -10 1 -15 9 -8 13 -10 13 -10
1 0 -8 -3 -12 -6 -8 -3 3 -3 11 1 17 5 8 11 8 21 -1 8 -6 12 -14 9 -18z m174
-230 c8 -14 7 -20 -4 -25 -8 -3 -17 0 -21 6 -4 7 -3 8 4 4 7 -4 12 -1 12 9 0
9 -4 13 -10 10 -5 -3 -10 -1 -10 4 0 18 19 12 29 -8z m41 -56 c0 -2 -7 -2 -15
1 -18 7 -19 0 -5 -26 7 -13 7 -21 -2 -26 -7 -4 -8 -3 -4 4 4 7 2 12 -4 12 -6
0 -8 5 -5 10 3 6 2 10 -4 10 -7 0 -8 14 -2 38 1 4 41 -18 41 -23z m-10 -605
c0 -4 -7 -11 -16 -14 -13 -5 -14 -4 -6 7 7 8 8 18 4 22 -4 5 -1 5 6 1 6 -4 12
-11 12 -16z"/>
<path d="M3140 2880 c6 -11 13 -20 16 -20 2 0 0 9 -6 20 -6 11 -13 20 -16 20
-2 0 0 -9 6 -20z"/>
<path d="M2936 3015 c-3 -9 -2 -14 3 -11 5 3 14 -1 21 -9 7 -8 16 -12 21 -9 5
3 9 1 9 -4 0 -5 7 -9 15 -9 8 0 13 3 10 5 -3 3 1 12 7 21 10 13 10 14 -2 4 -8
-7 -18 -13 -23 -13 -4 0 -5 6 -1 13 6 9 4 9 -8 -1 -14 -11 -18 -10 -31 8 -12
18 -15 19 -21 5z"/>
<path d="M4559 2975 c-1 -3 -2 -8 -3 -12 -1 -5 -5 -14 -9 -20 -6 -9 -3 -11 7
-7 8 3 14 14 13 25 -1 18 -5 25 -8 14z"/>
<path d="M3076 2956 c-16 -7 -25 -16 -20 -19 5 -3 21 3 34 14 29 21 26 22 -14
5z"/>
<path d="M4593 2757 c0 -8 6 -14 13 -14 7 0 10 6 7 14 -3 7 -8 13 -12 13 -4 0
-8 -6 -8 -13z"/>
<path d="M3350 2701 c0 -5 -10 -8 -22 -6 -20 4 -21 3 -6 -12 15 -14 18 -14 32
0 10 10 12 18 6 22 -5 3 -10 2 -10 -4z"/>
<path d="M4625 2460 c-3 -6 1 -7 9 -4 18 7 21 14 7 14 -6 0 -13 -4 -16 -10z"/>
<path d="M3470 2319 c0 -5 -4 -8 -9 -4 -5 3 -12 1 -16 -4 -3 -6 4 -15 16 -21
16 -9 20 -9 14 -1 -4 7 -1 18 5 26 9 11 9 15 1 15 -6 0 -11 -5 -11 -11z"/>
<path d="M2296 2298 c5 -7 -26 -12 -78 -12 -9 0 -15 -3 -12 -8 4 -7 -11 -12
-18 -6 -3 2 -25 -15 -83 -65 -87 -73 -115 -231 -60 -338 22 -42 97 -113 132
-127 16 -5 37 -13 48 -17 27 -10 135 -13 141 -4 2 4 15 6 29 5 13 -2 22 1 19
6 -3 4 9 11 26 14 17 4 33 11 36 15 3 5 10 6 16 3 7 -4 8 -2 4 5 -5 7 3 23 18
38 14 14 26 30 26 34 0 5 9 9 20 9 11 0 20 5 20 11 0 5 -4 8 -8 5 -5 -3 -9 1
-9 9 0 20 14 19 26 -2 9 -16 10 -14 8 7 -1 15 3 24 10 23 8 -2 10 4 6 14 -4
10 -2 14 4 10 5 -3 9 3 8 16 -1 12 5 33 13 47 13 22 13 23 -1 7 -9 -11 -18
-14 -21 -8 -4 5 -2 12 4 16 6 4 8 11 5 16 -4 5 -2 9 4 9 6 0 8 7 5 15 -10 24
-22 17 -19 -10 2 -14 0 -23 -4 -21 -4 3 -7 -6 -7 -19 0 -14 4 -21 11 -18 5 4
6 2 2 -2 -12 -14 -38 -15 -30 -2 10 16 11 29 1 49 -5 11 -3 22 8 32 8 9 12 20
9 26 -3 6 1 13 9 16 13 5 13 8 1 20 -16 16 -49 19 -40 4 4 -6 10 -8 15 -5 5 3
12 0 16 -6 5 -8 3 -9 -6 -4 -8 5 -11 4 -7 -1 3 -6 2 -16 -2 -23 -6 -9 -11 -10
-15 -2 -4 6 -2 11 5 11 8 0 6 7 -5 19 -10 11 -13 22 -8 25 5 3 12 15 15 26 3
11 1 18 -4 14 -5 -3 -9 0 -9 5 0 6 -5 11 -11 11 -8 0 -7 -5 1 -15 9 -11 10
-19 3 -26 -7 -7 -15 -4 -24 8 -13 17 -13 17 5 3 17 -13 19 -13 14 0 -2 8 -15
21 -29 27 -13 7 -22 13 -19 14 3 0 13 2 23 4 9 2 15 -1 12 -6 -4 -5 1 -6 10
-2 13 4 14 8 4 14 -7 4 -17 5 -21 3 -7 -5 -12 10 -9 29 0 4 -2 6 -6 6 -5 -1
-15 -1 -23 0 -13 1 -13 2 0 11 9 6 10 10 3 10 -6 0 -14 -4 -17 -8 -5 -9 8 -34
18 -33 3 1 6 -1 6 -4 0 -3 0 -7 0 -10 0 -3 -11 2 -25 11 -14 9 -22 20 -19 25
3 5 -4 21 -15 35 -12 15 -21 22 -21 17 0 -5 5 -14 11 -20 7 -7 5 -12 -10 -16
-14 -3 -18 -1 -14 9 6 17 -9 18 -26 2 -11 -11 -12 -10 -7 0 6 10 -1 12 -34 9
-29 -3 -40 -1 -36 8 2 6 -2 12 -10 12 -7 0 -11 -4 -8 -9z m159 -38 c-3 -5 -12
-10 -18 -10 -7 0 -6 4 3 10 19 12 23 12 15 0z m149 -331 c-12 -24 -18 -29 -27
-19 -9 9 -6 16 12 31 32 26 34 24 15 -12z"/>
<path d="M2585 1929 c-4 -6 -5 -12 -2 -15 2 -3 7 2 10 11 7 17 1 20 -8 4z"/>
<path d="M2335 2300 c3 -5 8 -10 11 -10 2 0 4 5 4 10 0 6 -5 10 -11 10 -5 0
-7 -4 -4 -10z"/>
<path d="M2595 2040 c-3 -5 -1 -10 4 -10 6 0 11 5 11 10 0 6 -2 10 -4 10 -3 0
-8 -4 -11 -10z"/>
<path d="M3377 1880 c-3 -11 -1 -20 4 -20 5 0 9 9 9 20 0 11 -2 20 -4 20 -2 0
-6 -9 -9 -20z"/>
<path d="M2540 1819 c-7 -11 -9 -23 -6 -27 3 -3 6 0 6 6 0 6 7 18 16 26 8 9
11 16 5 16 -6 0 -15 -9 -21 -21z"/>
<path d="M3350 1826 c0 -2 7 -7 16 -10 8 -3 12 -2 9 4 -6 10 -25 14 -25 6z"/>
<path d="M3310 1739 c0 -5 5 -7 10 -4 6 3 10 8 10 11 0 2 -4 4 -10 4 -5 0 -10
-5 -10 -11z"/>
<path d="M4330 1739 c0 -5 5 -7 10 -4 6 3 10 8 10 11 0 2 -4 4 -10 4 -5 0 -10
-5 -10 -11z"/>
<path d="M3225 1649 c-11 -16 -1 -19 13 -3 7 8 8 14 3 14 -5 0 -13 -5 -16 -11z"/>
<path d="M3156 1581 c-13 -14 -14 -21 -5 -27 7 -4 10 -3 5 4 -3 6 4 18 16 26
12 9 18 16 12 16 -6 0 -19 -9 -28 -19z"/>
</g>
</svg>
